<?xml version="1.0" encoding="UTF-8"?><svg id="_图层_1" xmlns="http://www.w3.org/2000/svg" viewBox="0 0 200 200"><defs><style>.cls-1{fill:#abb2be;}</style></defs><path class="cls-1" d="M133.42,11.4l-39.64,39.68-3.67-3.67c-4.88-4.88-12.81-4.88-17.69,0-4.88,4.88-4.88,12.81,0,17.69l62.49,62.49c4.88,4.88,12.81,4.88,17.69,0s4.88-12.81,0-17.69l-3.67-3.67,39.64-39.68c15.23-15.23,15.23-39.92,0-55.11-15.23-15.19-39.92-15.23-55.11,0l-.04-.04ZM21.64,126.27c-5.86,5.86-9.14,13.83-9.14,22.11v16.56l-10.39,15.58c-3.32,4.96-2.66,11.56,1.56,15.78,4.22,4.22,10.82,4.88,15.78,1.56l15.58-10.39h16.56c8.28,0,16.25-3.28,22.11-9.14l47.14-47.14-17.69-17.69-47.14,47.14c-1.17,1.17-2.77,1.84-4.41,1.84h-14.1v-14.1c0-1.64,.66-3.24,1.84-4.41l47.14-47.14-17.69-17.69L21.64,126.27Z"/></svg>