<?xml version="1.0" encoding="UTF-8"?><svg id="_图层_1" xmlns="http://www.w3.org/2000/svg" viewBox="0 0 200 200"><defs><style>.cls-1{fill:#ffcb73;}.cls-2{fill:#f78c70;}.cls-3{fill:#3c66ba;}</style></defs><path class="cls-3" d="M49.2,196.81c-27.13,0-49.2-22.07-49.2-49.2s22.07-49.2,49.2-49.2,49.2,22.07,49.2,49.2-22.07,49.2-49.2,49.2Zm0-82.45c-18.33,0-33.25,14.91-33.25,33.24s14.91,33.24,33.25,33.24,33.24-14.91,33.24-33.24-14.91-33.24-33.24-33.24Z"/><path class="cls-2" d="M179.14,191.66h-46.38c-11.5,0-20.86-9.36-20.86-20.86v-46.38c0-11.5,9.36-20.86,20.86-20.86h46.38c11.5,0,20.86,9.36,20.86,20.86v46.38c0,11.5-9.36,20.86-20.86,20.86Zm-46.38-72.14c-2.7,0-4.9,2.2-4.9,4.9v46.38c0,2.7,2.2,4.9,4.9,4.9h46.38c2.7,0,4.9-2.2,4.9-4.9v-46.38c0-2.7-2.2-4.9-4.9-4.9h-46.38Z"/><path class="cls-1" d="M131.65,91.26h-61.83c-6.55,0-12.63-3.54-15.88-9.24-3.25-5.69-3.17-12.75,.21-18.41L85.07,12.06c3.24-5.46,9.25-8.87,15.66-8.87s12.42,3.4,15.68,8.88l30.91,51.51c3.36,5.63,3.45,12.66,.25,18.37-3.21,5.74-9.31,9.3-15.92,9.3ZM100.73,19.15c-.8,0-1.57,.43-1.96,1.09l-30.94,51.56c-.42,.71-.44,1.61-.04,2.31,.42,.73,1.19,1.19,2.02,1.19h61.83c.82,0,1.61-.45,1.99-1.14,.42-.74,.41-1.66-.02-2.39l-30.92-51.54c-.39-.66-1.16-1.09-1.97-1.09Z"/></svg>