<?xml version="1.0" encoding="UTF-8"?><svg id="_图层_1" xmlns="http://www.w3.org/2000/svg" viewBox="0 0 200 200"><defs><style>.cls-1{fill:#7fcbc4;}.cls-2{fill:#00b6c1;}</style></defs><path class="cls-1" d="M29.28,124.87l-7.81,19.5L2.93,162.93c-3.91,3.91-3.91,10.25,0,14.16,3.91,3.91,10.25,3.91,14.16,0l19.25-19.28c1.44-1.44,2.56-3.16,3.31-5.03l4.53-11.31-12.72-13.88c-.78-.84-1.5-1.75-2.19-2.69v-.03Z"/><path class="cls-2" d="M172.07,67.92c-3.91-3.91-10.25-3.91-14.16,0s-3.91,10.25,0,14.16l7.94,7.91h-45.85c-5.53,0-10,4.47-10,10s4.47,10,10,10h45.85l-7.94,7.94c-3.91,3.91-3.91,10.25,0,14.16,3.91,3.91,10.25,3.91,14.16,0l25-25c3.91-3.91,3.91-10.25,0-14.16l-25-25h0Z"/><path class="cls-1" d="M65,49.98c8.28,0,15-6.72,15-15s-6.72-15-15-15-15,6.72-15,15,6.72,15,15,15Zm-26.35,32.66c.31-.13,.59-.25,.91-.38l-5.28,19.85c-1.75,6.59-.03,13.63,4.59,18.66l22.1,24.1,6.88,27.53c1.34,5.34,6.78,8.63,12.13,7.28,5.34-1.34,8.63-6.78,7.28-12.13l-7.19-28.78c-.59-2.44-1.81-4.66-3.5-6.5l-15.47-16.88,6.03-20.47,3,7.19c1.38,3.31,3.91,6.03,7.13,7.66l8.34,4.16c4.94,2.47,10.94,.47,13.41-4.47,2.47-4.94,.47-10.94-4.47-13.41l-6.72-3.34-4.78-11.5c-5.38-12.84-17.94-21.22-31.88-21.22-7.13,0-14.16,1.5-20.66,4.38l-2.5,1.09c-10.28,4.56-18.16,13.25-21.69,23.91l-.81,2.44c-1.75,5.25,1.09,10.91,6.31,12.66,5.22,1.75,10.91-1.09,12.66-6.31l.81-2.44c1.78-5.34,5.72-9.66,10.84-11.94l2.5-1.09,.03-.03Z"/></svg>