<?xml version="1.0" encoding="UTF-8"?><svg id="_图层_1" xmlns="http://www.w3.org/2000/svg" viewBox="0 0 200 200"><defs><style>.cls-1{fill:#abb2be;}</style></defs><path class="cls-1" d="M93.75,112.5c-3.44,0-6.25,2.81-6.25,6.25v37.5c0,3.44,2.81,6.25,6.25,6.25s6.25-2.8,6.25-6.25v-37.5c0-3.44-2.81-6.25-6.25-6.25Zm25,0c-3.44,0-6.25,2.81-6.25,6.25v37.5c0,3.45,2.8,6.25,5.9,6.25s6.6-2.81,6.6-6.25v-37.5c-.35-3.44-2.81-6.25-6.25-6.25Zm40.98-33.91c-5.37-6.69-13.59-10.72-22.23-10.72h-5.36c-1.45,0-2.9,.11-4.32,.34-4.88-3.72-10.86-5.71-17.11-5.71h-4.47V28.12c0-15.51-12.62-28.12-28.13-28.12s-28.12,12.62-28.12,28.12V93.95c-4.34-2.11-8.12-1.99-10.21-1.99-17.32,0-27.28,14.54-27.28,27.29,0,5.86,1.88,11.53,5.46,16.29l30.52,40.7c11.16,14.91,28.93,23.77,47.49,23.77h42.85c2.46,0,5.01-.37,7.09-1.03,11.17-2.13,21.04-7.58,28.58-15.8,8.36-8.83,13-20.59,13-33.09v-42.93c0-15.51-12.38-28.12-27.77-28.55Zm9.02,71.48c0,7.66-2.82,14.87-7.98,20.34-4.89,5.34-11.34,8.86-19.41,10.37-.96,.3-1.79,.46-2.53,.46h-42.85c-12.72,0-24.86-6.07-32.49-16.25l-30.53-40.71c-1.11-1.48-1.7-3.28-1.7-5.08,0-6.38,5.66-8.5,8.48-8.5,1.74,0,4.69,.61,6.77,3.4l10.98,14.65c1.21,1.6,3.07,2.51,5,2.51,4.66,0,6.25-4.18,6.25-6.25V28.12c0-5.17,4.21-9.38,9.02-9.38,5.16,0,9.37,4.21,9.37,9.38v51.05c0,2.71,2.13,6.25,6.26,6.25,4.83,0,5.06-4.18,11.94-4.18h5.36c8.4,0,7.25,7.5,13.55,7.5,3.15,0,3.83-2.14,7.87-2.14h5.36c10.53,0,6.79,10.71,15.93,10.71h5.5c5.42,0,9.83,4.4,9.83,9.82v42.93h0Zm-25-37.58c-3.44,0-6.25,2.81-6.25,6.25v37.5c0,3.45,2.8,6.25,6.25,6.25s6.25-2.8,6.25-6.25v-37.5c0-3.44-2.81-6.25-6.25-6.25Z"/></svg>