<?xml version="1.0" encoding="UTF-8"?><svg id="_图层_1" xmlns="http://www.w3.org/2000/svg" viewBox="0 0 200 200"><defs><style>.cls-1{fill:#abb2be;}</style></defs><path class="cls-1" d="M0,25C0,11.21,11.21,0,25,0h112.5c13.79,0,25,11.21,25,25v25c0,13.79-11.21,25-25,25H25C11.21,75,0,63.79,0,50V25Zm62.5,112.5c0-6.91,5.59-12.5,12.5-12.5v-6.25c0-17.27,13.98-31.25,31.25-31.25h56.25c6.91,0,12.5-5.59,12.5-12.5V27.15c14.57,5.16,25,19.02,25,35.35v12.5c0,20.7-16.8,37.5-37.5,37.5h-56.25c-3.44,0-6.25,2.81-6.25,6.25v6.25c6.91,0,12.5,5.59,12.5,12.5v50c0,6.91-5.59,12.5-12.5,12.5h-25c-6.91,0-12.5-5.59-12.5-12.5v-50Z"/></svg>