<?xml version="1.0" encoding="UTF-8"?><svg id="_图层_1" xmlns="http://www.w3.org/2000/svg" viewBox="0 0 200 200"><defs><style>.cls-1{fill:#fd828b;}</style></defs><path class="cls-1" d="M75,156.25c0,3.44-2.81,6.25-6.25,6.25s-6.25-2.81-6.25-6.25V75c0-3.44,2.81-6.25,6.25-6.25s6.25,2.81,6.25,6.25v81.25Zm31.25,0c0,3.44-2.81,6.25-6.25,6.25s-6.25-2.81-6.25-6.25V75c0-3.44,2.81-6.25,6.25-6.25s6.25,2.81,6.25,6.25v81.25Zm31.25,0c0,3.44-2.81,6.25-6.25,6.25s-6.25-2.81-6.25-6.25V75c0-3.44,2.81-6.25,6.25-6.25s6.25,2.81,6.25,6.25v81.25Zm-.98-146.51l14.34,21.51h27.27c5.2,0,9.38,4.2,9.38,9.38s-4.18,9.38-9.38,9.38h-3.13v118.75c0,17.27-13.98,31.25-31.25,31.25H56.25c-17.26,0-31.25-13.98-31.25-31.25V50h-3.13c-5.18,0-9.38-4.18-9.38-9.38s4.2-9.38,9.38-9.38h27.27l14.33-21.51C67.54,3.66,74.37,0,81.68,0h36.64c7.3,0,14.14,3.66,18.2,9.74h0ZM71.68,31.25h56.64l-7.42-11.11c-.59-.87-1.56-1.39-2.58-1.39h-36.64c-1.02,0-2.34,.52-2.58,1.39l-7.42,11.11Zm-27.93,137.5c0,6.91,5.6,12.5,12.5,12.5h87.5c6.91,0,12.5-5.59,12.5-12.5V50H43.75v118.75Z"/></svg>