<?xml version="1.0" encoding="UTF-8"?>
<svg id="_图层_1" data-name="图层 1" xmlns="http://www.w3.org/2000/svg" viewBox="0 0 232.43 232.43">
  <defs>
    <style>
      .cls-1 {
        fill: #000;
      }

      .cls-1, .cls-2 {
        stroke-width: 0px;
      }

      .cls-2 {
        fill: #36ffa1;
      }
    </style>
  </defs>
  <circle class="cls-2" cx="116.22" cy="116.22" r="116.22"/>
  <g>
    <path class="cls-1" d="M185.56.65c-41.63,42.52-83.26,85.04-124.89,127.57h39.42c-3.05,5.94-6.1,11.87-9.15,17.81h38.64c13.69-14.2,27.39-28.4,41.08-42.6h-43.07c19.32-34.26,38.65-68.52,57.97-102.78Z"/>
    <path class="cls-1" d="M111.34,164.94h-30.12c-4.02,7.82-8.03,15.64-12.05,23.46h19.55c7.54-7.82,15.08-15.64,22.62-23.46Z"/>
    <path class="cls-1" d="M59.46,207.3c-4.19,8.16-8.38,16.32-12.58,24.48,7.87-8.16,15.74-16.32,23.61-24.48h-11.03Z"/>
  </g>
</svg>